# xmcd
#
# Track frame offsets: 
#        150
#        14187
#        28782
#        42504
#        56847
#        71328
#        85690
#        97247
#        111141
#        124862
#        138415
#        152467
#        166139
#        179399
#        193768
#        205205
#        216209
#        229608
#        244214
#        255941
#        269216
#        284506
#        297679
#        311449
#        334365
#
# Disc length: 4616 seconds
#
# Revision: 3
# Processed by: cddbd v1.5.2PL0 Copyright (c) Steve Scherf et al.
# Submitted via: ExactAudioCopy v1.3
#
DISCID=88120619
DTITLE=Lead Belly (Huddie Ledbetter) - The definitive Lead Belly
DYEAR=2009
DGENRE=Blues
TTITLE0=Midnight Special
TTITLE1=John Hardy
TTITLE2=Where Did You Sleep Last Night
TTITLE3=T.B. Blues
TTITLE4=Easy Rider
TTITLE5=Alberta
TTITLE6=Rock Island Line
TTITLE7=Alabama Bound
TTITLE8=You Can't Lose Me, Cholly
TTITLE9=New York City
TTITLE10=Roberta
TTITLE11=Leaving Blues
TTITLE12=When the Boys Were Out on the Western Plains
TTITLE13=I'm on My Last Go Round
TTITLE14=Mother's Blues (with Josh White)
TTITLE15=Pretty Flowers in My Back Yard (with Josh White)
TTITLE16=Pick a Bale of Cotton
TTITLE17=Sail On, Little Girl, Sail On
TTITLE18=Fannin Street
TTITLE19=Packin' Trunk Blues
TTITLE20=The Bourgeois Blues
TTITLE21=Good Morning Blues
TTITLE22=The Boll Weevil
TTITLE23=Shorty George
TTITLE24=Goonight Irene
EXTD=
EXTT0=
EXTT1=
EXTT2=
EXTT3=
EXTT4=
EXTT5=
EXTT6=
EXTT7=
EXTT8=
EXTT9=
EXTT10=
EXTT11=
EXTT12=
EXTT13=
EXTT14=
EXTT15=
EXTT16=
EXTT17=
EXTT18=
EXTT19=
EXTT20=
EXTT21=
EXTT22=
EXTT23=
EXTT24=
PLAYORDER=
